<svg xmlns="http://www.w3.org/2000/svg" viewBox="0 0 400 225" preserveAspectRatio="xMidYMid slice">
  <defs>
    <linearGradient id="bg" x1="0" y1="0" x2="1" y2="1">
      <stop offset="0" stop-color="#15803d"/>
      <stop offset="1" stop-color="#14532d"/>
    </linearGradient>
    <radialGradient id="gl" cx="0.78" cy="0.2" r="0.85">
      <stop offset="0" stop-color="#ffffff" stop-opacity="0.18"/>
      <stop offset="1" stop-color="#ffffff" stop-opacity="0"/>
    </radialGradient>
    <pattern id="dots" width="24" height="24" patternUnits="userSpaceOnUse">
      <circle cx="3" cy="3" r="1.4" fill="#ffffff" opacity="0.07"/>
    </pattern>
  </defs>
  <rect width="400" height="225" fill="url(#bg)"/>
  <rect width="400" height="225" fill="url(#dots)"/>
  <rect width="400" height="225" fill="url(#gl)"/>
  <g stroke="#ffffff" stroke-width="4" fill="none" opacity="0.9" stroke-linecap="round">
    <path d="M150 44 C 210 80, 90 145, 150 181"/>
    <path d="M150 44 C 90 80, 210 145, 150 181"/>
    <path d="M127 70 H173 M118 96 H182 M118 130 H182 M127 156 H173"/>
  </g>
  <g fill="#86efac" opacity="0.95">
    <circle cx="300" cy="74" r="22"/>
    <circle cx="300" cy="74" r="9" fill="#14532d"/>
    <circle cx="300" cy="150" r="16"/>
  </g>
  <g fill="none" stroke="#bbf7d0" stroke-width="3" opacity="0.8">
    <path d="M278 150 q22 -30 44 0"/>
  </g>
</svg>
