<svg xmlns="http://www.w3.org/2000/svg" viewBox="0 0 400 225" preserveAspectRatio="xMidYMid slice">
  <defs>
    <linearGradient id="bg" x1="0" y1="0" x2="1" y2="1">
      <stop offset="0" stop-color="#143a7a"/>
      <stop offset="1" stop-color="#0d2a5a"/>
    </linearGradient>
    <radialGradient id="gl" cx="0.78" cy="0.2" r="0.85">
      <stop offset="0" stop-color="#ffffff" stop-opacity="0.18"/>
      <stop offset="1" stop-color="#ffffff" stop-opacity="0"/>
    </radialGradient>
    <pattern id="dots" width="24" height="24" patternUnits="userSpaceOnUse">
      <circle cx="3" cy="3" r="1.4" fill="#ffffff" opacity="0.07"/>
    </pattern>
  </defs>
  <rect width="400" height="225" fill="url(#bg)"/>
  <rect width="400" height="225" fill="url(#dots)"/>
  <rect width="400" height="225" fill="url(#gl)"/>
  <g fill="none" stroke="#ffffff" stroke-width="4" opacity="0.9">
    <ellipse cx="172" cy="118" rx="58" ry="22"/>
    <ellipse cx="172" cy="118" rx="58" ry="22" transform="rotate(60 172 118)"/>
    <ellipse cx="172" cy="118" rx="58" ry="22" transform="rotate(120 172 118)"/>
  </g>
  <circle cx="172" cy="118" r="9" fill="#ffffff"/>
  <path d="M250 86 h30 v6 h-5 v28 l22 52 a10 10 0 0 1 -9 14 h-46 a10 10 0 0 1 -9 -14 l22 -52 v-28 h-5 z" fill="#ffffff" opacity="0.92"/>
</svg>
