<svg xmlns="http://www.w3.org/2000/svg" viewBox="0 0 400 225" preserveAspectRatio="xMidYMid slice">
  <defs>
    <linearGradient id="bg" x1="0" y1="0" x2="1" y2="1">
      <stop offset="0" stop-color="#14315e"/>
      <stop offset="1" stop-color="#0c1f3d"/>
    </linearGradient>
    <radialGradient id="gl" cx="0.5" cy="0.32" r="0.7">
      <stop offset="0" stop-color="#ffffff" stop-opacity="0.16"/>
      <stop offset="1" stop-color="#ffffff" stop-opacity="0"/>
    </radialGradient>
    <pattern id="dots" width="24" height="24" patternUnits="userSpaceOnUse">
      <circle cx="3" cy="3" r="1.4" fill="#ffffff" opacity="0.07"/>
    </pattern>
  </defs>
  <rect width="400" height="225" fill="url(#bg)"/>
  <rect width="400" height="225" fill="url(#dots)"/>
  <rect width="400" height="225" fill="url(#gl)"/>
  <g stroke="#ffffff" stroke-width="5" stroke-linecap="round" opacity="0.85">
    <line x1="168" y1="118" x2="128" y2="76"/>
    <line x1="232" y1="118" x2="272" y2="76"/>
  </g>
  <g fill="#ffffff" opacity="0.8">
    <path d="M126 74 l32 7 l-7 19 l-28 -7 z"/>
    <path d="M274 74 l-32 7 l7 19 l28 -7 z"/>
  </g>
  <rect x="196" y="116" width="8" height="78" rx="3" fill="#ffffff" opacity="0.95"/>
  <g fill="#ffffff" opacity="0.95">
    <path d="M200 120 q-36 -26 -66 -15 q31 -3 66 11 z"/>
    <path d="M200 120 q36 -26 66 -15 q-31 -3 -66 11 z"/>
    <path d="M200 114 q-24 -36 -50 -42 q22 13 50 48 z"/>
    <path d="M200 114 q24 -36 50 -42 q-22 13 -50 48 z"/>
    <path d="M200 110 q-9 -40 0 -52 q9 12 0 52 z"/>
  </g>
  <ellipse cx="200" cy="194" rx="42" ry="8" fill="#ffffff" opacity="0.45"/>
</svg>
